<svg xmlns="http://www.w3.org/2000/svg" width="79.999" height="60.005" viewBox="0 0 79.999 60.005"><path d="M37.73-8.635C37.692-8.56,37.655-8.5,37.73-8.635ZM68.871-19.51h-.005a19.464,19.464,0,0,0-7.245,1.687A15.4,15.4,0,0,1,60-21.585a10.042,10.042,0,0,1-.137-3.163,26.63,26.63,0,0,1,.95-3.4c-.012-.138-.175-.825-1.787-.838s-3,.313-3.161.737A18.506,18.506,0,0,0,55.2-25.86c-.287,1.463-3.224,6.687-4.886,9.412A9.7,9.7,0,0,1,49.2-19.2a10.041,10.041,0,0,1-.137-3.162,26.634,26.634,0,0,1,.95-3.4c-.012-.137-.175-.825-1.786-.838s-3,.313-3.162.738-.338,1.425-.662,2.387-4.236,9.662-5.26,11.925c-.525,1.15-.975,2.075-1.3,2.7-.05.1-.088.162-.112.213.037-.062.063-.125.063-.1-.275.537-.437.838-.437.838v.012c-.213.4-.45.762-.562.762a5.183,5.183,0,0,1,.037-2.487c.588-3.025,1.975-7.725,1.963-7.888-.013-.087.262-.9-.913-1.337a1.471,1.471,0,0,0-1.65.275c-.1,0-.175.25-.175.25s1.262-5.3-2.424-5.3c-2.3,0-5.5,2.525-7.072,4.812-.988.537-3.125,1.7-5.375,2.937-.863.475-1.75.963-2.588,1.425-.062-.062-.113-.125-.175-.187C13.945-19.4,5.685-22.772,6.035-29.185c.125-2.337.937-8.475,15.884-15.925,12.25-6.1,22.044-4.425,23.73-.7,2.425,5.312-5.236,15.2-17.957,16.625-4.849.538-7.4-1.337-8.035-2.037-.662-.737-.762-.775-1.012-.637-.413.225-.15.875,0,1.262a7.532,7.532,0,0,0,4.6,3.613c2.337.762,8.022,1.187,14.9-1.475,7.722-2.975,13.734-11.263,11.971-18.2-1.8-7.05-13.485-9.362-24.539-5.437C18.985-49.76,11.863-46.085,6.739-41.3.652-35.6-.321-30.635.079-28.56,1.5-21.2,11.65-16.4,15.711-12.848c-.2.113-.388.213-.562.312C13.113-11.522,5.376-7.473,3.44-3.2,1.252,1.652,3.8,5.127,5.476,5.6,10.7,7.052,16.049,4.44,18.922.152s2.525-9.887,1.2-12.437c-.013-.037-.038-.062-.05-.1.525-.312,1.062-.625,1.6-.937,1.036-.613,2.049-1.175,2.936-1.662a19.415,19.415,0,0,0-1.05,5.325c-.225,2.75.912,6.312,2.388,7.713a2.623,2.623,0,0,0,1.924.625c1.725,0,2.5-1.425,3.361-3.125,1.062-2.075,2-4.488,2-4.488S32.056-2.41,35.269-2.41c1.174,0,2.349-1.512,2.875-2.287v.012s.025-.05.087-.15c.125-.187.188-.3.188-.3v-.037c.475-.812,1.513-2.675,3.074-5.75,2.025-3.975,3.961-8.937,3.961-8.937a30.356,30.356,0,0,0,.775,3.225,30.184,30.184,0,0,0,1.675,3.75c-.475.65-.763,1.025-.763,1.025a.045.045,0,0,0,.013.025c-.375.5-.8,1.037-1.238,1.562a44.11,44.11,0,0,0-3.75,4.7,1.277,1.277,0,0,0,.35,1.713,3.039,3.039,0,0,0,1.961.312,8.668,8.668,0,0,0,2.937-.675,12.327,12.327,0,0,0,2.524-1.325,5.643,5.643,0,0,0,2.425-4.975,10.354,10.354,0,0,0-.912-3.525c.137-.2.287-.412.425-.625a66.452,66.452,0,0,0,4.386-7.577,30.358,30.358,0,0,0,.775,3.225,22.041,22.041,0,0,0,1.424,3.213A13.74,13.74,0,0,0,54.2-10.3c-.925,2.663-.2,3.863,1.163,4.138A4.194,4.194,0,0,0,57.5-6.6a11.9,11.9,0,0,0,2.7-1.388c1.562-1.15,3.074-2.762,2.974-4.95a9.3,9.3,0,0,0-.675-2.925,15.258,15.258,0,0,1,7.761-.9c6.96.812,8.322,5.162,8.06,6.975a4.621,4.621,0,0,1-2.213,3.125c-.487.3-.637.412-.6.637.063.325.287.312.7.238a5.43,5.43,0,0,0,3.786-4.838c.2-4.25-3.886-8.925-11.125-8.887ZM15.224-1.422C12.925,1.09,9.7,2.04,8.314,1.24,6.826.375,7.414-3.323,10.25-6a37.041,37.041,0,0,1,5.424-4.05c.338-.2.825-.5,1.425-.862.1-.062.15-.088.15-.088.112-.075.237-.137.362-.213a9.977,9.977,0,0,1-2.387,9.787Zm16.8-11.425c-.8,1.963-2.486,6.963-3.511,6.7-.875-.225-1.412-4.038-.175-7.788a17.241,17.241,0,0,1,2.737-5.012c1.261-1.412,2.649-1.863,2.974-1.3C34.481-19.51,32.519-14.072,32.019-12.848ZM45.894-6.223c-.338.175-.65.287-.8.2-.113-.062.137-.3.137-.3s1.738-1.863,2.425-2.713c.4-.5.863-1.088,1.361-1.737,0,.063.013.125.013.2-.016,2.238-2.165,3.75-3.14,4.35Zm10.7-2.437c-.25-.175-.213-.762.625-2.588a9.716,9.716,0,0,1,2.375-3.062,5.426,5.426,0,0,1,.237,1.35,4.407,4.407,0,0,1-3.236,4.3Z" transform="translate(0 53.999)" fill="#fff"></path></svg>