<svg xmlns="http://www.w3.org/2000/svg" width="48" height="56" viewBox="0 0 48 56"><path d="M24,4A23.969,23.969,0,0,0,37.35-.025H10.662A23.9,23.9,0,0,0,24,4ZM12.863-20.137v-1.55H0v1.55c0,.313,0,.625.012.925H12.9C12.875-19.512,12.863-19.825,12.863-20.137Zm2.562,7.125H1.062a22.7,22.7,0,0,0,1.2,3.1H19.55A11.382,11.382,0,0,1,15.425-13.012ZM13.212-17.35H.162A25.455,25.455,0,0,0,.65-14.562H14.363A10.926,10.926,0,0,1,13.212-17.35Zm-.35-8.662H0v2.162H12.863Zm0-21.65H0v.612H12.863Zm0-4.338H0v.313H12.863Zm0,8.662H0v.925H12.863Zm0,13H0v1.85H12.863Zm0-8.662H0v1.238H12.863Zm0,4.325H0v1.55H12.863ZM33.637-14.562H47.35a20.622,20.622,0,0,0,.488-2.787H34.787A11.392,11.392,0,0,1,33.637-14.562Zm1.5-23.212H48V-39H35.137Zm0,4.65H48v-1.55H35.137Zm0-9.287H48v-.925H35.137Zm0-9.588v.313H48V-52ZM9.762-.637H38.225A24.14,24.14,0,0,0,42.25-4.35H5.613A26.066,26.066,0,0,0,9.762-.637ZM35.137-47.05H48v-.612H35.137Zm0,18.562H48v-1.85H35.137ZM4.85-5.287H43.012a23.75,23.75,0,0,0,2.225-3.4H2.875A23.434,23.434,0,0,0,4.85-5.287Zm23.6-4.638H45.875a25.13,25.13,0,0,0,1.063-3.1H32.562A11.064,11.064,0,0,1,28.45-9.925Zm6.687-10.212a7.513,7.513,0,0,1-.05.925H47.975c.013-.312.025-.612.025-.925v-1.55H35.137Zm0-3.713H48v-2.162H35.137Z" transform="translate(0 52)" fill="#fff"></path></svg>