<svg xmlns="http://www.w3.org/2000/svg" width="80" height="20" viewBox="0 0 80 20"><path d="M-26.887-12H-22.5a6.4,6.4,0,0,0,5.8-3.8l6.975-13.937S-8.425-32-11.025-32h-4.1c-1.3,0-1.65,1.075-2.35,2.262l-4.588,9.312A2.823,2.823,0,0,1-24.7-18.787a2.823,2.823,0,0,1-2.638-1.638l-4.588-9.312c-.7-1.175-1.05-2.262-2.35-2.262h-4.1c-2.6,0-1.3,2.262-1.3,2.262L-32.688-15.8A6.419,6.419,0,0,0-26.887-12Zm49.375,0h4.4a6.4,6.4,0,0,0,5.8-3.8l6.988-13.937S40.975-32,38.375-32H34.262c-1.3,0-1.65,1.075-2.35,2.262l-4.6,9.312a2.823,2.823,0,0,1-2.637,1.638,2.823,2.823,0,0,1-2.638-1.638L17.45-29.737C16.75-30.912,16.4-32,15.1-32H11c-2.6,0-1.3,2.262-1.3,2.262L16.687-15.8A6.419,6.419,0,0,0,22.487-12ZM2.2-32H-2.188a6.4,6.4,0,0,0-5.8,3.8l-6.987,13.937S-16.275-12-13.675-12h4.113c1.3,0,1.65-1.088,2.35-2.262l4.588-9.312A2.823,2.823,0,0,1,.012-25.212,2.823,2.823,0,0,1,2.65-23.575l4.588,9.312C7.937-13.087,8.287-12,9.587-12h4.1c2.6,0,1.3-2.262,1.3-2.262L8-28.2A6.419,6.419,0,0,0,2.2-32Z" transform="translate(40 32)" fill="#fff"></path></svg>