<svg xmlns="http://www.w3.org/2000/svg" width="55.125" height="55.125" viewBox="0 0 55.125 55.125"><path d="M48.234-51.187H6.891A6.9,6.9,0,0,0,0-44.3V-2.953A6.9,6.9,0,0,0,6.891,3.937H48.234a6.9,6.9,0,0,0,6.891-6.891V-44.3A6.9,6.9,0,0,0,48.234-51.187Zm-13.326,10.1a1.84,1.84,0,0,1,3.679,0v24.548a1.84,1.84,0,0,1-3.679,0Zm-9.179-.923a1.84,1.84,0,0,1,3.679,0v26.64a1.84,1.84,0,0,1-3.679,0Zm-9.191.923a1.84,1.84,0,0,1,3.679,0v24.548a1.84,1.84,0,0,1-3.679,0ZM7.346-37.406a1.84,1.84,0,0,1,3.679,0v16.525a1.84,1.84,0,0,1-3.679,0ZM47.139-9.376C38.181-1.624,17.4-1.329,8-9.376a1.837,1.837,0,0,1,2.387-2.793c8.109,6.8,26.59,6.632,34.367,0A1.837,1.837,0,0,1,47.139-9.376Zm.64-11.5a1.84,1.84,0,0,1-3.679,0V-37.406a1.84,1.84,0,0,1,3.679,0Z" transform="translate(0 51.187)" fill="#fff"></path></svg>